<?xml version="1.0" encoding="UTF-8"?>
<svg xmlns="http://www.w3.org/2000/svg" width="2580" height="1780" viewBox="0 0 2580 1780" role="img" aria-label="VCF-RDFizer ontology relationship graph"><defs><linearGradient id="bg-grad" x1="0" y1="0" x2="1" y2="1"><stop offset="0%" stop-color="#f5f0e8"/><stop offset="70%" stop-color="#eef5fa"/><stop offset="100%" stop-color="#faf4ea"/></linearGradient><marker id="arrow-subClassOf" markerWidth="8" markerHeight="8" refX="7" refY="4" orient="auto" markerUnits="strokeWidth"><path d="M 0 0 L 8 4 L 0 8 z" fill="#1f6f92"/></marker><marker id="arrow-domain" markerWidth="8" markerHeight="8" refX="7" refY="4" orient="auto" markerUnits="strokeWidth"><path d="M 0 0 L 8 4 L 0 8 z" fill="#2f8040"/></marker><marker id="arrow-range" markerWidth="8" markerHeight="8" refX="7" refY="4" orient="auto" markerUnits="strokeWidth"><path d="M 0 0 L 8 4 L 0 8 z" fill="#ab6b22"/></marker><marker id="arrow-annotation" markerWidth="8" markerHeight="8" refX="7" refY="4" orient="auto" markerUnits="strokeWidth"><path d="M 0 0 L 8 4 L 0 8 z" fill="#a64343"/></marker></defs><rect x="0" y="0" width="2580" height="1780" fill="url(#bg-grad)"/><rect x="24" y="24" width="2532" height="1732" rx="20" fill="#ffffff" fill-opacity="0.66" stroke="#d8e3ec"/><text x="90" y="52" font-family="Space Grotesk, IBM Plex Sans, sans-serif" font-size="30" font-weight="700" fill="#1d2a36">VCF-RDFizer Vocabulary: Static Relationship Graph</text><text x="90" y="78" font-family="IBM Plex Sans, sans-serif" font-size="14" fill="#4e6070">Generated from ontology/vcf-rdfizer-vocabulary.ttl at 2026-03-04T09:28:48.066Z (UTC)</text><g id="edges" opacity="0.92"><path d="M 819.51 854.23 Q 801.56 929.24 780.7 1003.49" fill="none" stroke="#1f6f92" stroke-width="1.55" stroke-opacity="0.54" marker-end="url(#arrow-subClassOf)"/><path d="M 819.51 854.23 Q 786.85 889.23 754.2 924.22" fill="none" stroke="#1f6f92" stroke-width="1.55" stroke-opacity="0.54" marker-end="url(#arrow-subClassOf)"/><path d="M 780.7 1003.49 Q 816.46 1071.93 873.6 1123.89" fill="none" stroke="#1f6f92" stroke-width="1.55" stroke-opacity="0.54" marker-end="url(#arrow-subClassOf)"/><path d="M 126.5 993.79 Q 165.35 941.14 196.6 883.66" fill="none" stroke="#1f6f92" stroke-width="1.55" stroke-opacity="0.54" marker-end="url(#arrow-subClassOf)"/><path d="M 1160.82 1118.78 Q 1017.13 1116.83 873.6 1123.89" fill="none" stroke="#1f6f92" stroke-width="1.55" stroke-opacity="0.54" marker-end="url(#arrow-subClassOf)"/><path d="M 754.2 924.22 Q 811.32 1025.59 873.6 1123.89" fill="none" stroke="#1f6f92" stroke-width="1.55" stroke-opacity="0.54" marker-end="url(#arrow-subClassOf)"/><path d="M 786.55 1283.94 Q 837.98 1208.21 873.6 1123.89" fill="none" stroke="#1f6f92" stroke-width="1.55" stroke-opacity="0.54" marker-end="url(#arrow-subClassOf)"/><path d="M 833.01 1299.75 Q 857.69 1212.83 873.6 1123.89" fill="none" stroke="#1f6f92" stroke-width="1.55" stroke-opacity="0.54" marker-end="url(#arrow-subClassOf)"/><path d="M 853.27 966.99 Q 809.09 933.21 754.2 924.22" fill="none" stroke="#1f6f92" stroke-width="1.55" stroke-opacity="0.54" marker-end="url(#arrow-subClassOf)"/><path d="M 853.27 966.99 Q 812.76 1024.59 793.94 1092.45" fill="none" stroke="#1f6f92" stroke-width="1.55" stroke-opacity="0.54" marker-end="url(#arrow-subClassOf)"/><path d="M 793.94 1092.45 Q 829.37 1119.33 873.6 1123.89" fill="none" stroke="#1f6f92" stroke-width="1.55" stroke-opacity="0.54" marker-end="url(#arrow-subClassOf)"/><path d="M 99.79 774.24 Q 143.7 832.93 196.6 883.66" fill="none" stroke="#1f6f92" stroke-width="1.55" stroke-opacity="0.54" marker-end="url(#arrow-subClassOf)"/><path d="M 90 880.71 Q 143.26 883.68 196.6 883.66" fill="none" stroke="#1f6f92" stroke-width="1.55" stroke-opacity="0.54" marker-end="url(#arrow-subClassOf)"/><path d="M 639.19 1060.3 Q 697.84 993.23 754.2 924.22" fill="none" stroke="#1f6f92" stroke-width="1.55" stroke-opacity="0.54" marker-end="url(#arrow-subClassOf)"/><path d="M 639.19 1060.3 Q 666.94 1117.08 699.94 1170.97" fill="none" stroke="#1f6f92" stroke-width="1.55" stroke-opacity="0.54" marker-end="url(#arrow-subClassOf)"/><path d="M 699.94 1170.97 Q 790.3 1160.46 873.6 1123.89" fill="none" stroke="#1f6f92" stroke-width="1.55" stroke-opacity="0.54" marker-end="url(#arrow-subClassOf)"/><path d="M 623.99 1007.91 Q 688.28 964.81 754.2 924.22" fill="none" stroke="#1f6f92" stroke-width="1.55" stroke-opacity="0.54" marker-end="url(#arrow-subClassOf)"/><path d="M 623.99 1007.91 Q 658.39 1062.01 692.8 1116.1" fill="none" stroke="#1f6f92" stroke-width="1.55" stroke-opacity="0.54" marker-end="url(#arrow-subClassOf)"/><path d="M 692.8 1116.1 Q 783.26 1118.49 873.6 1123.89" fill="none" stroke="#1f6f92" stroke-width="1.55" stroke-opacity="0.54" marker-end="url(#arrow-subClassOf)"/><path d="M 97.09 823.13 Q 145.29 855.96 196.6 883.66" fill="none" stroke="#1f6f92" stroke-width="1.55" stroke-opacity="0.54" marker-end="url(#arrow-subClassOf)"/><path d="M 749.73 1250.64 Q 815.95 1191.46 873.6 1123.89" fill="none" stroke="#1f6f92" stroke-width="1.55" stroke-opacity="0.54" marker-end="url(#arrow-subClassOf)"/><path d="M 1300.8 401.46 Q 1367.78 500.86 1437.23 598.54" fill="none" stroke="#1f6f92" stroke-width="1.55" stroke-opacity="0.54" marker-end="url(#arrow-subClassOf)"/><path d="M 883.87 1288.47 Q 886.22 1205.71 873.6 1123.89" fill="none" stroke="#1f6f92" stroke-width="1.55" stroke-opacity="0.54" marker-end="url(#arrow-subClassOf)"/><path d="M 113.6 941.62 Q 155.96 913.87 196.6 883.66" fill="none" stroke="#1f6f92" stroke-width="1.55" stroke-opacity="0.54" marker-end="url(#arrow-subClassOf)"/><path d="M 1379.31 452.94 Q 1408.27 525.74 1437.23 598.54" fill="none" stroke="#1f6f92" stroke-width="1.55" stroke-opacity="0.54" marker-end="url(#arrow-subClassOf)"/><path d="M 1516.44 880.68 Q 1598.8 907.05 1684.49 918.79" fill="none" stroke="#1f6f92" stroke-width="1.55" stroke-opacity="0.54" marker-end="url(#arrow-subClassOf)"/><path d="M 1516.44 880.68 Q 1482.61 737.99 1437.23 598.54" fill="none" stroke="#1f6f92" stroke-width="1.55" stroke-opacity="0.54" marker-end="url(#arrow-subClassOf)"/><path d="M 1457.25 692.58 Q 1445.77 645.87 1437.23 598.54" fill="none" stroke="#1f6f92" stroke-width="1.55" stroke-opacity="0.54" marker-end="url(#arrow-subClassOf)"/><path d="M 1345.91 698.63 Q 1402.12 705.59 1457.25 692.58" fill="none" stroke="#2f8040" stroke-width="1.55" stroke-opacity="0.54" marker-end="url(#arrow-domain)"/><path d="M 996.18 767.82 Q 898.18 791.26 819.51 854.23" fill="none" stroke="#2f8040" stroke-width="1.55" stroke-opacity="0.54" marker-end="url(#arrow-domain)"/><path d="M 1313.47 736.03 Q 1391.72 735.37 1457.25 692.58" fill="none" stroke="#2f8040" stroke-width="1.55" stroke-opacity="0.54" marker-end="url(#arrow-domain)"/><path d="M 1226.71 999.74 Q 1174.52 1048.6 1160.82 1118.78" fill="none" stroke="#2f8040" stroke-width="1.55" stroke-opacity="0.54" marker-end="url(#arrow-domain)"/><path d="M 1651.37 978.65 Q 1595.06 914.29 1516.44 880.68" fill="none" stroke="#2f8040" stroke-width="1.55" stroke-opacity="0.54" marker-end="url(#arrow-domain)"/><path d="M 1204.42 966.02 Q 1171.56 1039.24 1160.82 1118.78" fill="none" stroke="#2f8040" stroke-width="1.55" stroke-opacity="0.54" marker-end="url(#arrow-domain)"/><path d="M 1402.35 1114.77 Q 1281.34 1102.27 1160.82 1118.78" fill="none" stroke="#2f8040" stroke-width="1.55" stroke-opacity="0.54" marker-end="url(#arrow-domain)"/><path d="M 1176.22 987.63 Q 1160.08 1052.22 1160.82 1118.78" fill="none" stroke="#2f8040" stroke-width="1.55" stroke-opacity="0.54" marker-end="url(#arrow-domain)"/><path d="M 945.22 807.2 Q 841.35 852.07 754.2 924.22" fill="none" stroke="#2f8040" stroke-width="1.55" stroke-opacity="0.54" marker-end="url(#arrow-domain)"/><path d="M 962.08 866.12 Q 851.81 872.54 754.2 924.22" fill="none" stroke="#2f8040" stroke-width="1.55" stroke-opacity="0.54" marker-end="url(#arrow-domain)"/><path d="M 1479.67 772.72 Q 1598.11 760.04 1710.97 721.97" fill="none" stroke="#2f8040" stroke-width="1.55" stroke-opacity="0.54" marker-end="url(#arrow-domain)"/><path d="M 961.7 834.33 Q 853.97 870.1 754.2 924.22" fill="none" stroke="#2f8040" stroke-width="1.55" stroke-opacity="0.54" marker-end="url(#arrow-domain)"/><path d="M 454.49 901.02 Q 602.53 936.05 754.2 924.22" fill="none" stroke="#2f8040" stroke-width="1.55" stroke-opacity="0.54" marker-end="url(#arrow-domain)"/><path d="M 1479.46 739.25 Q 1596.63 749.56 1710.97 721.97" fill="none" stroke="#2f8040" stroke-width="1.55" stroke-opacity="0.54" marker-end="url(#arrow-domain)"/><path d="M 1945.16 738.81 Q 1829.64 708.45 1710.97 721.97" fill="none" stroke="#2f8040" stroke-width="1.55" stroke-opacity="0.54" marker-end="url(#arrow-domain)"/><path d="M 1798.41 539.83 Q 1747.03 627.22 1710.97 721.97" fill="none" stroke="#2f8040" stroke-width="1.55" stroke-opacity="0.54" marker-end="url(#arrow-domain)"/><path d="M 1748.15 878.09 Q 1745.12 796.32 1710.97 721.97" fill="none" stroke="#2f8040" stroke-width="1.55" stroke-opacity="0.54" marker-end="url(#arrow-domain)"/><path d="M 1697.47 1052.91 Q 1619.01 954.12 1516.44 880.68" fill="none" stroke="#2f8040" stroke-width="1.55" stroke-opacity="0.54" marker-end="url(#arrow-domain)"/><path d="M 1356.19 864.08 Q 1434.82 886.8 1516.44 880.68" fill="none" stroke="#2f8040" stroke-width="1.55" stroke-opacity="0.54" marker-end="url(#arrow-domain)"/><path d="M 1300.84 601.01 Q 1350.24 532.36 1379.31 452.94" fill="none" stroke="#2f8040" stroke-width="1.55" stroke-opacity="0.54" marker-end="url(#arrow-domain)"/><path d="M 1025.93 883.9 Q 933.96 913.73 853.27 966.99" fill="none" stroke="#2f8040" stroke-width="1.55" stroke-opacity="0.54" marker-end="url(#arrow-domain)"/><path d="M 1273.07 574.8 Q 1339.38 525.37 1379.31 452.94" fill="none" stroke="#2f8040" stroke-width="1.55" stroke-opacity="0.54" marker-end="url(#arrow-domain)"/><path d="M 1489.05 516.49 Q 1451.5 600.62 1457.25 692.58" fill="none" stroke="#2f8040" stroke-width="1.55" stroke-opacity="0.54" marker-end="url(#arrow-domain)"/><path d="M 1205.57 209.57 Q 1244.23 309.96 1300.8 401.46" fill="none" stroke="#2f8040" stroke-width="1.55" stroke-opacity="0.54" marker-end="url(#arrow-domain)"/><path d="M 1342.81 986.44 Q 1434.82 942.1 1516.44 880.68" fill="none" stroke="#2f8040" stroke-width="1.55" stroke-opacity="0.54" marker-end="url(#arrow-domain)"/><path d="M 982.16 1084.46 Q 1061.15 1045.08 1127.27 986.63" fill="none" stroke="#2f8040" stroke-width="1.55" stroke-opacity="0.54" marker-end="url(#arrow-domain)"/><path d="M 1278.33 269.66 Q 1308.24 372.64 1379.31 452.94" fill="none" stroke="#2f8040" stroke-width="1.55" stroke-opacity="0.54" marker-end="url(#arrow-domain)"/><path d="M 1582.95 789.89 Q 1542.84 830.26 1516.44 880.68" fill="none" stroke="#2f8040" stroke-width="1.55" stroke-opacity="0.54" marker-end="url(#arrow-domain)"/><path d="M 1380.02 315.84 Q 1360.66 384.29 1379.31 452.94" fill="none" stroke="#2f8040" stroke-width="1.55" stroke-opacity="0.54" marker-end="url(#arrow-domain)"/><path d="M 1044.33 991.73 Q 947.33 1042.79 873.6 1123.89" fill="none" stroke="#2f8040" stroke-width="1.55" stroke-opacity="0.54" marker-end="url(#arrow-domain)"/><path d="M 1021.02 963.2 Q 935.52 1032.73 873.6 1123.89" fill="none" stroke="#2f8040" stroke-width="1.55" stroke-opacity="0.54" marker-end="url(#arrow-domain)"/><path d="M 1246.62 594.02 Q 1323.53 533.41 1379.31 452.94" fill="none" stroke="#2f8040" stroke-width="1.55" stroke-opacity="0.54" marker-end="url(#arrow-domain)"/><path d="M 1595.9 839.85 Q 1540.41 753.19 1457.25 692.58" fill="none" stroke="#2f8040" stroke-width="1.55" stroke-opacity="0.54" marker-end="url(#arrow-domain)"/><path d="M 1584.02 364.18 Q 1478.28 400.76 1379.31 452.94" fill="none" stroke="#2f8040" stroke-width="1.55" stroke-opacity="0.54" marker-end="url(#arrow-domain)"/><path d="M 1352.39 756.09 Q 1410.78 734.17 1457.25 692.58" fill="none" stroke="#2f8040" stroke-width="1.55" stroke-opacity="0.54" marker-end="url(#arrow-domain)"/><path d="M 1303.44 688.61 Q 1380.13 699.09 1457.25 692.58" fill="none" stroke="#2f8040" stroke-width="1.55" stroke-opacity="0.54" marker-end="url(#arrow-domain)"/><path d="M 1375.37 896.24 Q 1447.17 899.89 1516.44 880.68" fill="none" stroke="#2f8040" stroke-width="1.55" stroke-opacity="0.54" marker-end="url(#arrow-domain)"/><path d="M 1200.81 561.81 Q 1270.75 494.07 1300.8 401.46" fill="none" stroke="#2f8040" stroke-width="1.55" stroke-opacity="0.54" marker-end="url(#arrow-domain)"/><path d="M 1385.52 837.37 Q 1448.31 867.09 1516.44 880.68" fill="none" stroke="#2f8040" stroke-width="1.55" stroke-opacity="0.54" marker-end="url(#arrow-domain)"/><path d="M 1345.91 698.63 Q 1289.19 767.85 1205.22 798.77" fill="none" stroke="#ab6b22" stroke-width="1.55" stroke-opacity="0.54" marker-end="url(#arrow-range)"/><path d="M 996.18 767.82 Q 1101.95 774.89 1205.22 798.77" fill="none" stroke="#ab6b22" stroke-width="1.55" stroke-opacity="0.54" marker-end="url(#arrow-range)"/><path d="M 1679.2 1663.26 Q 1728.03 1665.6 1770.4 1690" fill="none" stroke="#ab6b22" stroke-width="1.55" stroke-opacity="0.54" marker-end="url(#arrow-range)"/><path d="M 1313.47 736.03 Q 1265.11 777.35 1205.22 798.77" fill="none" stroke="#ab6b22" stroke-width="1.55" stroke-opacity="0.54" marker-end="url(#arrow-range)"/><path d="M 1182.89 1286.72 Q 1161.94 1204.05 1160.82 1118.78" fill="none" stroke="#ab6b22" stroke-width="1.55" stroke-opacity="0.54" marker-end="url(#arrow-range)"/><path d="M 1226.71 999.74 Q 1194.09 901.59 1205.22 798.77" fill="none" stroke="#ab6b22" stroke-width="1.55" stroke-opacity="0.54" marker-end="url(#arrow-range)"/><path d="M 1651.37 978.65 Q 1628.93 998.27 1599.21 996.08" fill="none" stroke="#ab6b22" stroke-width="1.55" stroke-opacity="0.54" marker-end="url(#arrow-range)"/><path d="M 1204.42 966.02 Q 1182.82 882.29 1205.22 798.77" fill="none" stroke="#ab6b22" stroke-width="1.55" stroke-opacity="0.54" marker-end="url(#arrow-range)"/><path d="M 1402.35 1114.77 Q 1490.97 1039.15 1599.21 996.08" fill="none" stroke="#ab6b22" stroke-width="1.55" stroke-opacity="0.54" marker-end="url(#arrow-range)"/><path d="M 1176.22 987.63 Q 1182.32 891.91 1205.22 798.77" fill="none" stroke="#ab6b22" stroke-width="1.55" stroke-opacity="0.54" marker-end="url(#arrow-range)"/><path d="M 604.38 865.95 Q 682.37 887.16 754.2 924.22" fill="none" stroke="#ab6b22" stroke-width="1.55" stroke-opacity="0.54" marker-end="url(#arrow-range)"/><path d="M 945.22 807.2 Q 1074.75 788.49 1205.22 798.77" fill="none" stroke="#ab6b22" stroke-width="1.55" stroke-opacity="0.54" marker-end="url(#arrow-range)"/><path d="M 962.08 866.12 Q 1080.98 822.81 1205.22 798.77" fill="none" stroke="#ab6b22" stroke-width="1.55" stroke-opacity="0.54" marker-end="url(#arrow-range)"/><path d="M 1479.67 772.72 Q 1344.1 803.17 1205.22 798.77" fill="none" stroke="#ab6b22" stroke-width="1.55" stroke-opacity="0.54" marker-end="url(#arrow-range)"/><path d="M 961.7 834.33 Q 1080.5 796.26 1205.22 798.77" fill="none" stroke="#ab6b22" stroke-width="1.55" stroke-opacity="0.54" marker-end="url(#arrow-range)"/><path d="M 454.49 901.02 Q 323.97 915.78 196.6 883.66" fill="none" stroke="#ab6b22" stroke-width="1.55" stroke-opacity="0.54" marker-end="url(#arrow-range)"/><path d="M 1479.46 739.25 Q 1344.78 780.25 1205.22 798.77" fill="none" stroke="#ab6b22" stroke-width="1.55" stroke-opacity="0.54" marker-end="url(#arrow-range)"/><path d="M 1945.16 738.81 Q 2029.68 751.63 2110 780.91" fill="none" stroke="#ab6b22" stroke-width="1.55" stroke-opacity="0.54" marker-end="url(#arrow-range)"/><path d="M 1798.41 539.83 Q 1754.32 471.2 1752.3 389.66" fill="none" stroke="#ab6b22" stroke-width="1.55" stroke-opacity="0.54" marker-end="url(#arrow-range)"/><path d="M 1748.15 878.09 Q 1682.69 948.45 1599.21 996.08" fill="none" stroke="#ab6b22" stroke-width="1.55" stroke-opacity="0.54" marker-end="url(#arrow-range)"/><path d="M 1697.47 1052.91 Q 1764.31 1108.57 1811.72 1181.49" fill="none" stroke="#ab6b22" stroke-width="1.55" stroke-opacity="0.54" marker-end="url(#arrow-range)"/><path d="M 1356.19 864.08 Q 1274.35 846.11 1205.22 798.77" fill="none" stroke="#ab6b22" stroke-width="1.55" stroke-opacity="0.54" marker-end="url(#arrow-range)"/><path d="M 1300.84 601.01 Q 1270.14 708.16 1205.22 798.77" fill="none" stroke="#ab6b22" stroke-width="1.55" stroke-opacity="0.54" marker-end="url(#arrow-range)"/><path d="M 1025.93 883.9 Q 1108.07 825.53 1205.22 798.77" fill="none" stroke="#ab6b22" stroke-width="1.55" stroke-opacity="0.54" marker-end="url(#arrow-range)"/><path d="M 1273.07 574.8 Q 1251.59 690.55 1205.22 798.77" fill="none" stroke="#ab6b22" stroke-width="1.55" stroke-opacity="0.54" marker-end="url(#arrow-range)"/><path d="M 1489.05 516.49 Q 1426.91 497.26 1379.31 452.94" fill="none" stroke="#ab6b22" stroke-width="1.55" stroke-opacity="0.54" marker-end="url(#arrow-range)"/><path d="M 1205.57 209.57 Q 1136.33 165.11 1102.73 90" fill="none" stroke="#ab6b22" stroke-width="1.55" stroke-opacity="0.54" marker-end="url(#arrow-range)"/><path d="M 1342.81 986.44 Q 1235.06 1008.53 1127.27 986.63" fill="none" stroke="#ab6b22" stroke-width="1.55" stroke-opacity="0.54" marker-end="url(#arrow-range)"/><path d="M 982.16 1084.46 Q 930.78 1112.16 873.6 1123.89" fill="none" stroke="#ab6b22" stroke-width="1.55" stroke-opacity="0.54" marker-end="url(#arrow-range)"/><path d="M 1278.33 269.66 Q 1199.15 250.87 1139.19 195.86" fill="none" stroke="#ab6b22" stroke-width="1.55" stroke-opacity="0.54" marker-end="url(#arrow-range)"/><path d="M 1582.95 789.89 Q 1513.06 750.33 1457.25 692.58" fill="none" stroke="#ab6b22" stroke-width="1.55" stroke-opacity="0.54" marker-end="url(#arrow-range)"/><path d="M 1380.02 315.84 Q 1347.75 365.44 1300.8 401.46" fill="none" stroke="#ab6b22" stroke-width="1.55" stroke-opacity="0.54" marker-end="url(#arrow-range)"/><path d="M 1044.33 991.73 Q 1113.64 885.97 1205.22 798.77" fill="none" stroke="#ab6b22" stroke-width="1.55" stroke-opacity="0.54" marker-end="url(#arrow-range)"/><path d="M 1021.02 963.2 Q 1101.47 867.93 1205.22 798.77" fill="none" stroke="#ab6b22" stroke-width="1.55" stroke-opacity="0.54" marker-end="url(#arrow-range)"/><path d="M 1246.62 594.02 Q 1241.61 699.57 1205.22 798.77" fill="none" stroke="#ab6b22" stroke-width="1.55" stroke-opacity="0.54" marker-end="url(#arrow-range)"/><path d="M 1595.9 839.85 Q 1612.05 917.66 1599.21 996.08" fill="none" stroke="#ab6b22" stroke-width="1.55" stroke-opacity="0.54" marker-end="url(#arrow-range)"/><path d="M 1584.02 364.18 Q 1671.45 355.17 1752.3 389.66" fill="none" stroke="#ab6b22" stroke-width="1.55" stroke-opacity="0.54" marker-end="url(#arrow-range)"/><path d="M 1352.39 756.09 Q 1284.93 798.56 1205.22 798.77" fill="none" stroke="#ab6b22" stroke-width="1.55" stroke-opacity="0.54" marker-end="url(#arrow-range)"/><path d="M 1303.44 688.61 Q 1260.67 749.35 1205.22 798.77" fill="none" stroke="#ab6b22" stroke-width="1.55" stroke-opacity="0.54" marker-end="url(#arrow-range)"/><path d="M 1375.37 896.24 Q 1280.85 863.99 1205.22 798.77" fill="none" stroke="#ab6b22" stroke-width="1.55" stroke-opacity="0.54" marker-end="url(#arrow-range)"/><path d="M 1200.81 561.81 Q 1226.51 679.86 1205.22 798.77" fill="none" stroke="#ab6b22" stroke-width="1.55" stroke-opacity="0.54" marker-end="url(#arrow-range)"/><path d="M 1385.52 837.37 Q 1290.77 839.58 1205.22 798.77" fill="none" stroke="#ab6b22" stroke-width="1.55" stroke-opacity="0.54" marker-end="url(#arrow-range)"/><path d="M 1853.6 1669.21 Q 1806.18 1656.32 1770.4 1690" fill="none" stroke="#a64343" stroke-width="1.25" stroke-opacity="0.54" marker-end="url(#arrow-annotation)" stroke-dasharray="4 4"/></g><g id="nodes"><circle cx="819.51" cy="854.23" r="7.76" fill="#b7dcf6" stroke="#5a6f82" stroke-width="1.1"/><text x="833.27" y="858.03" text-anchor="start" font-family="IBM Plex Sans, sans-serif" font-size="11.2" fill="#1e2e3f" stroke="#ffffff" stroke-width="3" paint-order="stroke fill">vcfr:AltDefinition</text><circle cx="780.7" cy="1003.49" r="7.24" fill="#b7dcf6" stroke="#5a6f82" stroke-width="1.1"/><text x="793.94" y="1007.29" text-anchor="start" font-family="IBM Plex Sans, sans-serif" font-size="11.2" fill="#1e2e3f" stroke="#ffffff" stroke-width="3" paint-order="stroke fill">vcfr:ALTHeaderLine</text><circle cx="126.5" cy="993.79" r="6.72" fill="#b7dcf6" stroke="#5a6f82" stroke-width="1.1"/><text x="139.22" y="997.59" text-anchor="start" font-family="IBM Plex Sans, sans-serif" font-size="11.2" fill="#1e2e3f" stroke="#ffffff" stroke-width="3" paint-order="stroke fill">vcfr:CharacterType</text><circle cx="1160.82" cy="1118.78" r="8.8" fill="#b7dcf6" stroke="#5a6f82" stroke-width="1.1"/><text x="1175.62" y="1122.58" text-anchor="start" font-family="IBM Plex Sans, sans-serif" font-size="11.2" fill="#1e2e3f" stroke="#ffffff" stroke-width="3" paint-order="stroke fill">vcfr:ContigHeaderLine</text><circle cx="754.2" cy="924.22" r="8.8" fill="#b7dcf6" stroke="#5a6f82" stroke-width="1.1"/><text x="769" y="928.02" text-anchor="start" font-family="IBM Plex Sans, sans-serif" font-size="11.2" fill="#1e2e3f" stroke="#ffffff" stroke-width="3" paint-order="stroke fill">vcfr:FieldDefinition</text><circle cx="786.55" cy="1283.94" r="6.72" fill="#b7dcf6" stroke="#5a6f82" stroke-width="1.1"/><text x="799.27" y="1287.74" text-anchor="start" font-family="IBM Plex Sans, sans-serif" font-size="11.2" fill="#1e2e3f" stroke="#ffffff" stroke-width="3" paint-order="stroke fill">vcfr:FileDateHeaderLine</text><circle cx="833.01" cy="1299.75" r="6.72" fill="#b7dcf6" stroke="#5a6f82" stroke-width="1.1"/><text x="845.73" y="1303.55" text-anchor="start" font-family="IBM Plex Sans, sans-serif" font-size="11.2" fill="#1e2e3f" stroke="#ffffff" stroke-width="3" paint-order="stroke fill">vcfr:FileFormatHeaderLine</text><circle cx="853.27" cy="966.99" r="7.76" fill="#b7dcf6" stroke="#5a6f82" stroke-width="1.1"/><text x="867.03" y="970.79" text-anchor="start" font-family="IBM Plex Sans, sans-serif" font-size="11.2" fill="#1e2e3f" stroke="#ffffff" stroke-width="3" paint-order="stroke fill">vcfr:FilterDefinition</text><circle cx="793.94" cy="1092.45" r="7.24" fill="#b7dcf6" stroke="#5a6f82" stroke-width="1.1"/><text x="807.18" y="1096.25" text-anchor="start" font-family="IBM Plex Sans, sans-serif" font-size="11.2" fill="#1e2e3f" stroke="#ffffff" stroke-width="3" paint-order="stroke fill">vcfr:FILTERHeaderLine</text><circle cx="99.79" cy="774.24" r="6.72" fill="#b7dcf6" stroke="#5a6f82" stroke-width="1.1"/><text x="112.51" y="778.04" text-anchor="start" font-family="IBM Plex Sans, sans-serif" font-size="11.2" fill="#1e2e3f" stroke="#ffffff" stroke-width="3" paint-order="stroke fill">vcfr:FlagType</text><circle cx="90" cy="880.71" r="6.72" fill="#b7dcf6" stroke="#5a6f82" stroke-width="1.1"/><text x="102.72" y="884.51" text-anchor="start" font-family="IBM Plex Sans, sans-serif" font-size="11.2" fill="#1e2e3f" stroke="#ffffff" stroke-width="3" paint-order="stroke fill">vcfr:FloatType</text><circle cx="639.19" cy="1060.3" r="7.24" fill="#b7dcf6" stroke="#5a6f82" stroke-width="1.1"/><text x="652.43" y="1064.1" text-anchor="start" font-family="IBM Plex Sans, sans-serif" font-size="11.2" fill="#1e2e3f" stroke="#ffffff" stroke-width="3" paint-order="stroke fill">vcfr:FormatFieldDefinition</text><circle cx="1102.73" cy="90" r="6.72" fill="#b7dcf6" stroke="#5a6f82" stroke-width="1.1"/><text x="1115.45" y="93.8" text-anchor="start" font-family="IBM Plex Sans, sans-serif" font-size="11.2" fill="#1e2e3f" stroke="#ffffff" stroke-width="3" paint-order="stroke fill">vcfr:FormatFieldValue</text><circle cx="699.94" cy="1170.97" r="7.24" fill="#b7dcf6" stroke="#5a6f82" stroke-width="1.1"/><text x="713.18" y="1174.77" text-anchor="start" font-family="IBM Plex Sans, sans-serif" font-size="11.2" fill="#1e2e3f" stroke="#ffffff" stroke-width="3" paint-order="stroke fill">vcfr:FORMATHeaderLine</text><circle cx="873.6" cy="1123.89" r="8.8" fill="#b7dcf6" stroke="#5a6f82" stroke-width="1.1"/><text x="888.4" y="1127.69" text-anchor="start" font-family="IBM Plex Sans, sans-serif" font-size="11.2" fill="#1e2e3f" stroke="#ffffff" stroke-width="3" paint-order="stroke fill">vcfr:HeaderLine</text><circle cx="623.99" cy="1007.91" r="7.24" fill="#b7dcf6" stroke="#5a6f82" stroke-width="1.1"/><text x="637.23" y="1011.71" text-anchor="start" font-family="IBM Plex Sans, sans-serif" font-size="11.2" fill="#1e2e3f" stroke="#ffffff" stroke-width="3" paint-order="stroke fill">vcfr:InfoFieldDefinition</text><circle cx="1139.19" cy="195.86" r="6.72" fill="#b7dcf6" stroke="#5a6f82" stroke-width="1.1"/><text x="1151.91" y="199.66" text-anchor="start" font-family="IBM Plex Sans, sans-serif" font-size="11.2" fill="#1e2e3f" stroke="#ffffff" stroke-width="3" paint-order="stroke fill">vcfr:InfoFieldValue</text><circle cx="692.8" cy="1116.1" r="7.24" fill="#b7dcf6" stroke="#5a6f82" stroke-width="1.1"/><text x="706.04" y="1119.9" text-anchor="start" font-family="IBM Plex Sans, sans-serif" font-size="11.2" fill="#1e2e3f" stroke="#ffffff" stroke-width="3" paint-order="stroke fill">vcfr:INFOHeaderLine</text><circle cx="97.09" cy="823.13" r="6.72" fill="#b7dcf6" stroke="#5a6f82" stroke-width="1.1"/><text x="109.81" y="826.93" text-anchor="start" font-family="IBM Plex Sans, sans-serif" font-size="11.2" fill="#1e2e3f" stroke="#ffffff" stroke-width="3" paint-order="stroke fill">vcfr:IntegerType</text><circle cx="749.73" cy="1250.64" r="6.72" fill="#b7dcf6" stroke="#5a6f82" stroke-width="1.1"/><text x="762.45" y="1254.44" text-anchor="start" font-family="IBM Plex Sans, sans-serif" font-size="11.2" fill="#1e2e3f" stroke="#ffffff" stroke-width="3" paint-order="stroke fill">vcfr:ReferenceHeaderLine</text><circle cx="1300.8" cy="401.46" r="8.28" fill="#b7dcf6" stroke="#5a6f82" stroke-width="1.1"/><text x="1315.08" y="405.26" text-anchor="start" font-family="IBM Plex Sans, sans-serif" font-size="11.2" fill="#1e2e3f" stroke="#ffffff" stroke-width="3" paint-order="stroke fill">vcfr:SampleCall</text><circle cx="883.87" cy="1288.47" r="6.72" fill="#b7dcf6" stroke="#5a6f82" stroke-width="1.1"/><text x="896.59" y="1292.27" text-anchor="start" font-family="IBM Plex Sans, sans-serif" font-size="11.2" fill="#1e2e3f" stroke="#ffffff" stroke-width="3" paint-order="stroke fill">vcfr:SourceHeaderLine</text><circle cx="113.6" cy="941.62" r="6.72" fill="#b7dcf6" stroke="#5a6f82" stroke-width="1.1"/><text x="126.32" y="945.42" text-anchor="start" font-family="IBM Plex Sans, sans-serif" font-size="11.2" fill="#1e2e3f" stroke="#ffffff" stroke-width="3" paint-order="stroke fill">vcfr:StringType</text><circle cx="1379.31" cy="452.94" r="8.8" fill="#b7dcf6" stroke="#5a6f82" stroke-width="1.1"/><text x="1394.11" y="456.74" text-anchor="start" font-family="IBM Plex Sans, sans-serif" font-size="11.2" fill="#1e2e3f" stroke="#ffffff" stroke-width="3" paint-order="stroke fill">vcfr:VariantCall</text><circle cx="1516.44" cy="880.68" r="8.8" fill="#b7dcf6" stroke="#5a6f82" stroke-width="1.1"/><text x="1531.24" y="884.48" text-anchor="start" font-family="IBM Plex Sans, sans-serif" font-size="11.2" fill="#1e2e3f" stroke="#ffffff" stroke-width="3" paint-order="stroke fill">vcfr:VCFFile</text><circle cx="1127.27" cy="986.63" r="7.24" fill="#b7dcf6" stroke="#5a6f82" stroke-width="1.1"/><text x="1140.51" y="990.43" text-anchor="start" font-family="IBM Plex Sans, sans-serif" font-size="11.2" fill="#1e2e3f" stroke="#ffffff" stroke-width="3" paint-order="stroke fill">vcfr:VCFHeader</text><circle cx="272.99" cy="355.52" r="6.2" fill="#b7dcf6" stroke="#5a6f82" stroke-width="1.1"/><text x="285.19" y="359.32" text-anchor="start" font-family="IBM Plex Sans, sans-serif" font-size="11.2" fill="#1e2e3f" stroke="#ffffff" stroke-width="3" paint-order="stroke fill">vcfr:VCFNumberArity</text><circle cx="1457.25" cy="692.58" r="8.8" fill="#b7dcf6" stroke="#5a6f82" stroke-width="1.1"/><text x="1472.05" y="696.38" text-anchor="start" font-family="IBM Plex Sans, sans-serif" font-size="11.2" fill="#1e2e3f" stroke="#ffffff" stroke-width="3" paint-order="stroke fill">vcfr:VCFRecord</text><circle cx="196.6" cy="883.66" r="8.8" fill="#b7dcf6" stroke="#5a6f82" stroke-width="1.1"/><text x="211.4" y="887.46" text-anchor="start" font-family="IBM Plex Sans, sans-serif" font-size="11.2" fill="#1e2e3f" stroke="#ffffff" stroke-width="3" paint-order="stroke fill">vcfr:VCFValueType</text><circle cx="1679.2" cy="1663.26" r="6.72" fill="#bee7c3" stroke="#5a6f82" stroke-width="1.1"/><text x="1691.92" y="1667.06" text-anchor="start" font-family="IBM Plex Sans, sans-serif" font-size="11.2" fill="#1e2e3f" stroke="#ffffff" stroke-width="3" paint-order="stroke fill">vcfr:asSequenceAlteration</text><circle cx="1182.89" cy="1286.72" r="6.72" fill="#bee7c3" stroke="#5a6f82" stroke-width="1.1"/><text x="1195.61" y="1290.52" text-anchor="start" font-family="IBM Plex Sans, sans-serif" font-size="11.2" fill="#1e2e3f" stroke="#ffffff" stroke-width="3" paint-order="stroke fill">vcfr:chromosome</text><circle cx="604.38" cy="865.95" r="6.72" fill="#bee7c3" stroke="#5a6f82" stroke-width="1.1"/><text x="617.1" y="869.75" text-anchor="start" font-family="IBM Plex Sans, sans-serif" font-size="11.2" fill="#1e2e3f" stroke="#ffffff" stroke-width="3" paint-order="stroke fill">vcfr:declaredBy</text><circle cx="454.49" cy="901.02" r="7.24" fill="#bee7c3" stroke="#5a6f82" stroke-width="1.1"/><text x="467.73" y="904.82" text-anchor="start" font-family="IBM Plex Sans, sans-serif" font-size="11.2" fill="#1e2e3f" stroke="#ffffff" stroke-width="3" paint-order="stroke fill">vcfr:fieldType</text><circle cx="1489.05" cy="516.49" r="7.24" fill="#bee7c3" stroke="#5a6f82" stroke-width="1.1"/><text x="1502.29" y="520.29" text-anchor="start" font-family="IBM Plex Sans, sans-serif" font-size="11.2" fill="#1e2e3f" stroke="#ffffff" stroke-width="3" paint-order="stroke fill">vcfr:hasCall</text><circle cx="1205.57" cy="209.57" r="7.24" fill="#bee7c3" stroke="#5a6f82" stroke-width="1.1"/><text x="1218.81" y="213.37" text-anchor="start" font-family="IBM Plex Sans, sans-serif" font-size="11.2" fill="#1e2e3f" stroke="#ffffff" stroke-width="3" paint-order="stroke fill">vcfr:hasFormatValue</text><circle cx="1342.81" cy="986.44" r="7.24" fill="#bee7c3" stroke="#5a6f82" stroke-width="1.1"/><text x="1356.05" y="990.24" text-anchor="start" font-family="IBM Plex Sans, sans-serif" font-size="11.2" fill="#1e2e3f" stroke="#ffffff" stroke-width="3" paint-order="stroke fill">vcfr:hasHeader</text><circle cx="982.16" cy="1084.46" r="7.24" fill="#bee7c3" stroke="#5a6f82" stroke-width="1.1"/><text x="995.4" y="1088.26" text-anchor="start" font-family="IBM Plex Sans, sans-serif" font-size="11.2" fill="#1e2e3f" stroke="#ffffff" stroke-width="3" paint-order="stroke fill">vcfr:hasHeaderLine</text><circle cx="1278.33" cy="269.66" r="7.24" fill="#bee7c3" stroke="#5a6f82" stroke-width="1.1"/><text x="1291.57" y="273.46" text-anchor="start" font-family="IBM Plex Sans, sans-serif" font-size="11.2" fill="#1e2e3f" stroke="#ffffff" stroke-width="3" paint-order="stroke fill">vcfr:hasInfoValue</text><circle cx="1582.95" cy="789.89" r="7.24" fill="#bee7c3" stroke="#5a6f82" stroke-width="1.1"/><text x="1596.19" y="793.69" text-anchor="start" font-family="IBM Plex Sans, sans-serif" font-size="11.2" fill="#1e2e3f" stroke="#ffffff" stroke-width="3" paint-order="stroke fill">vcfr:hasRecord</text><circle cx="1380.02" cy="315.84" r="7.24" fill="#bee7c3" stroke="#5a6f82" stroke-width="1.1"/><text x="1393.26" y="319.64" text-anchor="start" font-family="IBM Plex Sans, sans-serif" font-size="11.2" fill="#1e2e3f" stroke="#ffffff" stroke-width="3" paint-order="stroke fill">vcfr:hasSampleCall</text><circle cx="1345.91" cy="698.63" r="7.24" fill="#f7d7ab" stroke="#5a6f82" stroke-width="1.1"/><text x="1359.15" y="702.43" text-anchor="start" font-family="IBM Plex Sans, sans-serif" font-size="11.2" fill="#1e2e3f" stroke="#ffffff" stroke-width="3" paint-order="stroke fill">vcfr:alt</text><circle cx="996.18" cy="767.82" r="7.24" fill="#f7d7ab" stroke="#5a6f82" stroke-width="1.1"/><text x="1009.42" y="771.62" text-anchor="start" font-family="IBM Plex Sans, sans-serif" font-size="11.2" fill="#1e2e3f" stroke="#ffffff" stroke-width="3" paint-order="stroke fill">vcfr:altId</text><circle cx="1313.47" cy="736.03" r="7.24" fill="#f7d7ab" stroke="#5a6f82" stroke-width="1.1"/><text x="1326.71" y="739.83" text-anchor="start" font-family="IBM Plex Sans, sans-serif" font-size="11.2" fill="#1e2e3f" stroke="#ffffff" stroke-width="3" paint-order="stroke fill">vcfr:chrom</text><circle cx="1226.71" cy="999.74" r="7.24" fill="#f7d7ab" stroke="#5a6f82" stroke-width="1.1"/><text x="1239.95" y="1003.54" text-anchor="start" font-family="IBM Plex Sans, sans-serif" font-size="11.2" fill="#1e2e3f" stroke="#ffffff" stroke-width="3" paint-order="stroke fill">vcfr:contigAssembly</text><circle cx="1651.37" cy="978.65" r="7.24" fill="#f7d7ab" stroke="#5a6f82" stroke-width="1.1"/><text x="1664.61" y="982.45" text-anchor="start" font-family="IBM Plex Sans, sans-serif" font-size="11.2" fill="#1e2e3f" stroke="#ffffff" stroke-width="3" paint-order="stroke fill">vcfr:contigCount</text><circle cx="1204.42" cy="966.02" r="7.24" fill="#f7d7ab" stroke="#5a6f82" stroke-width="1.1"/><text x="1217.66" y="969.82" text-anchor="start" font-family="IBM Plex Sans, sans-serif" font-size="11.2" fill="#1e2e3f" stroke="#ffffff" stroke-width="3" paint-order="stroke fill">vcfr:contigId</text><circle cx="1402.35" cy="1114.77" r="7.24" fill="#f7d7ab" stroke="#5a6f82" stroke-width="1.1"/><text x="1415.59" y="1118.57" text-anchor="start" font-family="IBM Plex Sans, sans-serif" font-size="11.2" fill="#1e2e3f" stroke="#ffffff" stroke-width="3" paint-order="stroke fill">vcfr:contigLength</text><circle cx="1176.22" cy="987.63" r="7.24" fill="#f7d7ab" stroke="#5a6f82" stroke-width="1.1"/><text x="1189.46" y="991.43" text-anchor="start" font-family="IBM Plex Sans, sans-serif" font-size="11.2" fill="#1e2e3f" stroke="#ffffff" stroke-width="3" paint-order="stroke fill">vcfr:contigMd5</text><circle cx="945.22" cy="807.2" r="7.24" fill="#f7d7ab" stroke="#5a6f82" stroke-width="1.1"/><text x="958.46" y="811" text-anchor="start" font-family="IBM Plex Sans, sans-serif" font-size="11.2" fill="#1e2e3f" stroke="#ffffff" stroke-width="3" paint-order="stroke fill">vcfr:fieldDescription</text><circle cx="962.08" cy="866.12" r="7.24" fill="#f7d7ab" stroke="#5a6f82" stroke-width="1.1"/><text x="975.32" y="869.92" text-anchor="start" font-family="IBM Plex Sans, sans-serif" font-size="11.2" fill="#1e2e3f" stroke="#ffffff" stroke-width="3" paint-order="stroke fill">vcfr:fieldId</text><circle cx="1479.67" cy="772.72" r="7.24" fill="#f7d7ab" stroke="#5a6f82" stroke-width="1.1"/><text x="1492.91" y="776.52" text-anchor="start" font-family="IBM Plex Sans, sans-serif" font-size="11.2" fill="#1e2e3f" stroke="#ffffff" stroke-width="3" paint-order="stroke fill">vcfr:fieldKey</text><circle cx="961.7" cy="834.33" r="7.24" fill="#f7d7ab" stroke="#5a6f82" stroke-width="1.1"/><text x="974.94" y="838.13" text-anchor="start" font-family="IBM Plex Sans, sans-serif" font-size="11.2" fill="#1e2e3f" stroke="#ffffff" stroke-width="3" paint-order="stroke fill">vcfr:fieldNumber</text><circle cx="1479.46" cy="739.25" r="7.24" fill="#f7d7ab" stroke="#5a6f82" stroke-width="1.1"/><text x="1492.7" y="743.05" text-anchor="start" font-family="IBM Plex Sans, sans-serif" font-size="11.2" fill="#1e2e3f" stroke="#ffffff" stroke-width="3" paint-order="stroke fill">vcfr:fieldValue</text><circle cx="1945.16" cy="738.81" r="7.24" fill="#f7d7ab" stroke="#5a6f82" stroke-width="1.1"/><text x="1931.92" y="742.61" text-anchor="end" font-family="IBM Plex Sans, sans-serif" font-size="11.2" fill="#1e2e3f" stroke="#ffffff" stroke-width="3" paint-order="stroke fill">vcfr:fieldValueBoolean</text><circle cx="1798.41" cy="539.83" r="7.24" fill="#f7d7ab" stroke="#5a6f82" stroke-width="1.1"/><text x="1811.65" y="543.63" text-anchor="start" font-family="IBM Plex Sans, sans-serif" font-size="11.2" fill="#1e2e3f" stroke="#ffffff" stroke-width="3" paint-order="stroke fill">vcfr:fieldValueDecimal</text><circle cx="1748.15" cy="878.09" r="7.24" fill="#f7d7ab" stroke="#5a6f82" stroke-width="1.1"/><text x="1761.39" y="881.89" text-anchor="start" font-family="IBM Plex Sans, sans-serif" font-size="11.2" fill="#1e2e3f" stroke="#ffffff" stroke-width="3" paint-order="stroke fill">vcfr:fieldValueInteger</text><circle cx="1697.47" cy="1052.91" r="7.24" fill="#f7d7ab" stroke="#5a6f82" stroke-width="1.1"/><text x="1710.71" y="1056.71" text-anchor="start" font-family="IBM Plex Sans, sans-serif" font-size="11.2" fill="#1e2e3f" stroke="#ffffff" stroke-width="3" paint-order="stroke fill">vcfr:fileDate</text><circle cx="1356.19" cy="864.08" r="7.24" fill="#f7d7ab" stroke="#5a6f82" stroke-width="1.1"/><text x="1369.43" y="867.88" text-anchor="start" font-family="IBM Plex Sans, sans-serif" font-size="11.2" fill="#1e2e3f" stroke="#ffffff" stroke-width="3" paint-order="stroke fill">vcfr:fileFormat</text><circle cx="1300.84" cy="601.01" r="7.24" fill="#f7d7ab" stroke="#5a6f82" stroke-width="1.1"/><text x="1314.08" y="604.81" text-anchor="start" font-family="IBM Plex Sans, sans-serif" font-size="11.2" fill="#1e2e3f" stroke="#ffffff" stroke-width="3" paint-order="stroke fill">vcfr:filter</text><circle cx="1025.93" cy="883.9" r="7.24" fill="#f7d7ab" stroke="#5a6f82" stroke-width="1.1"/><text x="1039.17" y="887.7" text-anchor="start" font-family="IBM Plex Sans, sans-serif" font-size="11.2" fill="#1e2e3f" stroke="#ffffff" stroke-width="3" paint-order="stroke fill">vcfr:filterId</text><circle cx="1273.07" cy="574.8" r="7.24" fill="#f7d7ab" stroke="#5a6f82" stroke-width="1.1"/><text x="1286.31" y="578.6" text-anchor="start" font-family="IBM Plex Sans, sans-serif" font-size="11.2" fill="#1e2e3f" stroke="#ffffff" stroke-width="3" paint-order="stroke fill">vcfr:formatRaw</text><circle cx="1044.33" cy="991.73" r="7.24" fill="#f7d7ab" stroke="#5a6f82" stroke-width="1.1"/><text x="1057.57" y="995.53" text-anchor="start" font-family="IBM Plex Sans, sans-serif" font-size="11.2" fill="#1e2e3f" stroke="#ffffff" stroke-width="3" paint-order="stroke fill">vcfr:headerKey</text><circle cx="1021.02" cy="963.2" r="7.24" fill="#f7d7ab" stroke="#5a6f82" stroke-width="1.1"/><text x="1034.26" y="967" text-anchor="start" font-family="IBM Plex Sans, sans-serif" font-size="11.2" fill="#1e2e3f" stroke="#ffffff" stroke-width="3" paint-order="stroke fill">vcfr:headerValue</text><circle cx="1246.62" cy="594.02" r="7.24" fill="#f7d7ab" stroke="#5a6f82" stroke-width="1.1"/><text x="1259.86" y="597.82" text-anchor="start" font-family="IBM Plex Sans, sans-serif" font-size="11.2" fill="#1e2e3f" stroke="#ffffff" stroke-width="3" paint-order="stroke fill">vcfr:infoRaw</text><circle cx="1595.9" cy="839.85" r="7.24" fill="#f7d7ab" stroke="#5a6f82" stroke-width="1.1"/><text x="1609.14" y="843.65" text-anchor="start" font-family="IBM Plex Sans, sans-serif" font-size="11.2" fill="#1e2e3f" stroke="#ffffff" stroke-width="3" paint-order="stroke fill">vcfr:pos</text><circle cx="1584.02" cy="364.18" r="7.24" fill="#f7d7ab" stroke="#5a6f82" stroke-width="1.1"/><text x="1597.26" y="367.98" text-anchor="start" font-family="IBM Plex Sans, sans-serif" font-size="11.2" fill="#1e2e3f" stroke="#ffffff" stroke-width="3" paint-order="stroke fill">vcfr:qual</text><circle cx="1352.39" cy="756.09" r="7.24" fill="#f7d7ab" stroke="#5a6f82" stroke-width="1.1"/><text x="1365.63" y="759.89" text-anchor="start" font-family="IBM Plex Sans, sans-serif" font-size="11.2" fill="#1e2e3f" stroke="#ffffff" stroke-width="3" paint-order="stroke fill">vcfr:recordId</text><circle cx="1303.44" cy="688.61" r="7.24" fill="#f7d7ab" stroke="#5a6f82" stroke-width="1.1"/><text x="1316.68" y="692.41" text-anchor="start" font-family="IBM Plex Sans, sans-serif" font-size="11.2" fill="#1e2e3f" stroke="#ffffff" stroke-width="3" paint-order="stroke fill">vcfr:ref</text><circle cx="1375.37" cy="896.24" r="7.24" fill="#f7d7ab" stroke="#5a6f82" stroke-width="1.1"/><text x="1388.61" y="900.04" text-anchor="start" font-family="IBM Plex Sans, sans-serif" font-size="11.2" fill="#1e2e3f" stroke="#ffffff" stroke-width="3" paint-order="stroke fill">vcfr:referenceGenome</text><circle cx="1200.81" cy="561.81" r="7.24" fill="#f7d7ab" stroke="#5a6f82" stroke-width="1.1"/><text x="1214.05" y="565.61" text-anchor="start" font-family="IBM Plex Sans, sans-serif" font-size="11.2" fill="#1e2e3f" stroke="#ffffff" stroke-width="3" paint-order="stroke fill">vcfr:sampleId</text><circle cx="1385.52" cy="837.37" r="7.24" fill="#f7d7ab" stroke="#5a6f82" stroke-width="1.1"/><text x="1398.76" y="841.17" text-anchor="start" font-family="IBM Plex Sans, sans-serif" font-size="11.2" fill="#1e2e3f" stroke="#ffffff" stroke-width="3" paint-order="stroke fill">vcfr:sourceSoftware</text><circle cx="1853.6" cy="1669.21" r="6.72" fill="#f2bebf" stroke="#5a6f82" stroke-width="1.1"/><text x="1866.32" y="1673.01" text-anchor="start" font-family="IBM Plex Sans, sans-serif" font-size="11.2" fill="#1e2e3f" stroke="#ffffff" stroke-width="3" paint-order="stroke fill">vcfr:recommendedSequenceAlterationClass</text><circle cx="1684.49" cy="918.79" r="5.2" fill="#dfe6ee" stroke="#8898aa" stroke-width="0.9"/><text x="1695.69" y="922.59" text-anchor="start" font-family="IBM Plex Sans, sans-serif" font-size="10" fill="#5f6f80" stroke="#ffffff" stroke-width="3" paint-order="stroke fill">dcat:Distribution</text><circle cx="1437.23" cy="598.54" r="5.2" fill="#dfe6ee" stroke="#8898aa" stroke-width="0.9"/><text x="1448.43" y="602.34" text-anchor="start" font-family="IBM Plex Sans, sans-serif" font-size="10" fill="#5f6f80" stroke="#ffffff" stroke-width="3" paint-order="stroke fill">prov:Entity</text><circle cx="1710.97" cy="721.97" r="5.2" fill="#dfe6ee" stroke="#8898aa" stroke-width="0.9"/><text x="1722.17" y="725.77" text-anchor="start" font-family="IBM Plex Sans, sans-serif" font-size="10" fill="#5f6f80" stroke="#ffffff" stroke-width="3" paint-order="stroke fill">rdf:Resource</text><circle cx="1770.4" cy="1690" r="5.2" fill="#dfe6ee" stroke="#8898aa" stroke-width="0.9"/><text x="1781.6" y="1693.8" text-anchor="start" font-family="IBM Plex Sans, sans-serif" font-size="10" fill="#5f6f80" stroke="#ffffff" stroke-width="3" paint-order="stroke fill">so:0001059</text><circle cx="2110" cy="780.91" r="5.2" fill="#dfe6ee" stroke="#8898aa" stroke-width="0.9"/><text x="2098.8" y="784.71" text-anchor="end" font-family="IBM Plex Sans, sans-serif" font-size="10" fill="#5f6f80" stroke="#ffffff" stroke-width="3" paint-order="stroke fill">xsd:boolean</text><circle cx="1811.72" cy="1181.49" r="5.2" fill="#dfe6ee" stroke="#8898aa" stroke-width="0.9"/><text x="1822.92" y="1185.29" text-anchor="start" font-family="IBM Plex Sans, sans-serif" font-size="10" fill="#5f6f80" stroke="#ffffff" stroke-width="3" paint-order="stroke fill">xsd:date</text><circle cx="1752.3" cy="389.66" r="5.2" fill="#dfe6ee" stroke="#8898aa" stroke-width="0.9"/><text x="1763.5" y="393.46" text-anchor="start" font-family="IBM Plex Sans, sans-serif" font-size="10" fill="#5f6f80" stroke="#ffffff" stroke-width="3" paint-order="stroke fill">xsd:decimal</text><circle cx="1599.21" cy="996.08" r="5.2" fill="#dfe6ee" stroke="#8898aa" stroke-width="0.9"/><text x="1610.41" y="999.88" text-anchor="start" font-family="IBM Plex Sans, sans-serif" font-size="10" fill="#5f6f80" stroke="#ffffff" stroke-width="3" paint-order="stroke fill">xsd:integer</text><circle cx="1205.22" cy="798.77" r="5.2" fill="#dfe6ee" stroke="#8898aa" stroke-width="0.9"/><text x="1216.42" y="802.57" text-anchor="start" font-family="IBM Plex Sans, sans-serif" font-size="10" fill="#5f6f80" stroke="#ffffff" stroke-width="3" paint-order="stroke fill">xsd:string</text></g><rect x="2222" y="114" width="336" height="420" rx="16" fill="#ffffff" stroke="#d3dfe8"/><text x="2238" y="138" font-size="18" font-family="IBM Plex Sans, sans-serif" font-weight="600" fill="#1d2a36">Legend</text><text x="2238" y="146" font-size="13" font-family="IBM Plex Sans, sans-serif" fill="#4a5b6b">Node types</text><rect x="2238" y="153" width="12" height="12" rx="2" fill="#b7dcf6" stroke="#b9c6d2"/><text x="2256" y="163" font-size="12" font-family="IBM Plex Sans, sans-serif" fill="#2a3947">class (29)</text><rect x="2238" y="173" width="12" height="12" rx="2" fill="#bee7c3" stroke="#b9c6d2"/><text x="2256" y="183" font-size="12" font-family="IBM Plex Sans, sans-serif" fill="#2a3947">objectProperty (11)</text><rect x="2238" y="193" width="12" height="12" rx="2" fill="#f7d7ab" stroke="#b9c6d2"/><text x="2256" y="203" font-size="12" font-family="IBM Plex Sans, sans-serif" fill="#2a3947">datatypeProperty (31)</text><rect x="2238" y="213" width="12" height="12" rx="2" fill="#f2bebf" stroke="#b9c6d2"/><text x="2256" y="223" font-size="12" font-family="IBM Plex Sans, sans-serif" fill="#2a3947">annotationProperty (1)</text><rect x="2238" y="233" width="12" height="12" rx="2" fill="#dfe6ee" stroke="#b9c6d2"/><text x="2256" y="243" font-size="12" font-family="IBM Plex Sans, sans-serif" fill="#2a3947">external (9)</text><text x="2238" y="270" font-size="13" font-family="IBM Plex Sans, sans-serif" fill="#4a5b6b">Edge relations</text><line x1="2238" y1="282" x2="2256" y2="282" stroke="#1f6f92" stroke-width="2.3"/><text x="2262" y="286" font-size="12" font-family="IBM Plex Sans, sans-serif" fill="#2a3947">subClassOf (28)</text><line x1="2238" y1="302" x2="2256" y2="302" stroke="#2f8040" stroke-width="2.3"/><text x="2262" y="306" font-size="12" font-family="IBM Plex Sans, sans-serif" fill="#2a3947">domain (39)</text><line x1="2238" y1="322" x2="2256" y2="322" stroke="#ab6b22" stroke-width="2.3"/><text x="2262" y="326" font-size="12" font-family="IBM Plex Sans, sans-serif" fill="#2a3947">range (42)</text><line x1="2238" y1="342" x2="2256" y2="342" stroke="#a64343" stroke-width="2.3"/><text x="2262" y="346" font-size="12" font-family="IBM Plex Sans, sans-serif" fill="#2a3947">annotation (1)</text><text x="2238" y="376" font-size="12" font-family="IBM Plex Sans, sans-serif" fill="#4b6174">Total nodes: 81</text><text x="2238" y="394" font-size="12" font-family="IBM Plex Sans, sans-serif" fill="#4b6174">Total edges: 110</text><text x="2238" y="560" font-size="12" font-family="IBM Plex Sans, sans-serif" fill="#4a6175">Edge labels omitted in static export for readability.</text><text x="2238" y="579" font-size="12" font-family="IBM Plex Sans, sans-serif" fill="#4a6175">Use docs/ontology-graph.html for interactive filtering.</text></svg>
